<svg width="512" height="512" viewBox="0 0 512 512" fill="none" xmlns="http://www.w3.org/2000/svg">
<path d="M449.61 88.8858C432.712 67.2258 366.93 94.7018 337.752 108.383C324.629 104.5 307.461 101.451 287.658 99.0958C267.88 96.5628 250.487 95.3438 236.816 95.9168C211.851 75.5628 154.729 32.8828 133.056 49.7908C111.537 66.5788 126.928 121.88 135.237 146.661C119.198 167.443 111.32 191.398 108.709 212.542C106.45 230.83 106.374 249.364 108.499 268.17C112.649 304.875 137.454 335.731 172.482 347.446C174.914 348.258 177.35 349.04 179.787 349.807C179.787 349.896 179.783 349.985 179.783 350.074C179.783 393.343 224.138 428.419 278.853 428.419C330.878 428.419 373.533 396.706 377.602 356.392C396.912 345.651 412.225 328.246 420.302 306.679C426.938 288.955 431.373 270.959 433.631 252.671C436.243 231.522 434.428 206.364 423.92 182.298C438.039 160.262 466.392 110.397 449.61 88.8858Z" fill="#B1B9C6"/>
<path d="M266.402 109.722C262.664 139.993 268.443 165.604 279.267 166.941C290.115 168.281 301.951 144.845 305.69 114.574C306.202 110.425 306.538 106.372 306.692 102.461C293.992 100.304 281.22 98.727 268.374 97.752C267.571 101.583 266.911 105.597 266.402 109.722Z" fill="#91A2B5"/>
<path d="M309.815 104.989C306.079 135.237 311.833 160.869 322.681 162.208C333.112 163.496 344.507 141.724 348.659 113.057C342.132 110.462 335.309 108.35 328.259 106.749C322.214 105.391 316.155 104.148 310.076 103.068C309.973 103.714 309.895 104.339 309.815 104.989Z" fill="#91A2B5"/>
<path d="M225.124 97.5409C222.117 126.467 227.856 150.497 238.333 151.791C249.181 153.131 260.997 129.669 264.733 99.4209C264.813 98.7719 264.891 98.1459 264.948 97.4939C257.879 96.9969 250.761 96.7059 243.646 96.5809C237.376 96.4659 231.192 96.8079 225.124 97.5409Z" fill="#91A2B5"/>
<path d="M421.275 132.663C421.275 132.663 423.528 140.143 423.056 148.156C422.635 155.564 417.516 160.626 411.432 162.251C400.972 146.911 387.349 133.744 371.352 123.791C372.007 119.824 374.159 116.113 377.768 113.57C392.257 103.335 411.845 92.7868 423.952 99.5538C445.039 111.36 421.275 132.663 421.275 132.663Z" fill="white"/>
<path d="M454.012 85.4539C436.453 62.9509 381.271 82.0269 337.284 102.463C324.677 98.9249 308.309 95.9419 288.365 93.5699C260.19 89.9629 238.645 89.2569 224.325 91.4759C215.444 92.8579 206.863 94.8199 198.821 97.3069C195.882 98.2159 194.236 101.335 195.145 104.275C196.054 107.214 199.174 108.86 202.113 107.951C209.641 105.623 217.69 103.784 226.035 102.485C239.319 100.428 259.814 101.147 287.001 104.627C314.168 107.859 334.221 112.149 346.602 117.375C354.382 120.666 361.743 124.408 368.479 128.498C369.383 129.047 370.38 129.308 371.365 129.308C373.247 129.308 375.084 128.354 376.132 126.627C377.728 123.997 376.892 120.571 374.262 118.974C367.534 114.889 360.233 111.141 352.545 107.808C401.053 86.5769 436.073 80.5729 445.228 92.3079C455.449 105.409 445.729 137.93 419.225 179.302L428.606 185.312C446.002 158.155 472.436 109.071 454.012 85.4539Z" fill="#678490"/>
<path d="M199.127 349.645C190.844 347.427 182.473 344.909 174.249 342.162C141.559 331.228 117.923 301.94 114.034 267.543C111.972 249.293 112.04 231.018 114.239 213.224C116.67 193.535 125.812 156.513 159.712 129.79C162.127 127.885 162.543 124.383 160.638 121.967C158.735 119.552 155.232 119.137 152.814 121.041C115.783 150.233 105.823 190.471 103.182 211.859C100.876 230.521 100.803 249.677 102.964 268.796C107.338 307.481 133.932 340.427 170.718 352.729C179.156 355.548 187.746 358.132 196.245 360.407C196.728 360.536 197.212 360.598 197.69 360.598C200.15 360.598 202.401 358.956 203.067 356.468C203.862 353.495 202.098 350.44 199.127 349.645Z" fill="#678490"/>
<path d="M179.96 268.385C179.733 268.385 179.502 268.37 179.271 268.342L150.474 264.786C147.421 264.408 145.251 261.628 145.627 258.574C146.005 255.521 148.785 253.344 151.839 253.728L180.636 257.283C183.689 257.661 185.86 260.441 185.483 263.495C185.134 266.318 182.733 268.385 179.96 268.385Z" fill="#91A2B5"/>
<path d="M153.047 292.527C150.522 292.527 148.236 290.799 147.631 288.235C146.924 285.241 148.778 282.24 151.772 281.534L176.411 275.718C179.403 275.011 182.405 276.865 183.112 279.859C183.819 282.853 181.965 285.854 178.971 286.56L154.332 292.376C153.901 292.478 153.471 292.527 153.047 292.527Z" fill="#91A2B5"/>
<path d="M233.88 193.538C233.653 193.538 233.422 193.524 233.191 193.495L218.084 191.629C215.031 191.252 212.861 188.471 213.237 185.417C213.615 182.364 216.397 180.191 219.449 180.571L234.556 182.437C237.609 182.814 239.779 185.595 239.403 188.649C239.053 191.471 236.652 193.538 233.88 193.538Z" fill="white"/>
<path d="M333.319 205.818C333.091 205.818 332.861 205.804 332.63 205.776L317.523 203.911C314.47 203.534 312.3 200.753 312.676 197.7C313.054 194.647 315.833 192.473 318.888 192.854L333.995 194.72C337.048 195.097 339.219 197.878 338.842 200.931C338.492 203.752 336.091 205.818 333.319 205.818Z" fill="white"/>
<path d="M85.5731 138.602C76.6461 106.674 107.403 36.6668 159.041 39.6378C212.947 42.7458 236.816 95.9158 236.816 95.9158C236.816 95.9158 141.133 119.294 113.816 177.369L85.5731 138.602Z" fill="#E080FD"/>
<path d="M241.898 93.6348C240.867 91.3378 215.993 37.3418 159.36 34.0768C138.305 32.8628 118.094 42.8968 102.456 62.3248C83.8401 85.4498 74.2751 118.886 80.2081 140.102C81.0371 143.065 84.1051 144.797 87.0741 143.967C90.0361 143.139 91.7671 140.065 90.9391 137.102C86.5831 121.523 92.9461 91.9058 111.136 69.3108C128.21 48.1018 146.439 44.4928 158.721 45.1988C198.168 47.4728 220.803 79.1078 228.613 92.3928C219.447 95.0808 202.193 100.714 183.152 109.842C157.28 122.244 137.345 136.537 123.567 152.518C111.147 124.863 124.511 103.536 125.125 102.584C126.814 100.013 126.099 96.5588 123.529 94.8688C120.959 93.1788 117.504 93.8928 115.814 96.4648C114.997 97.7088 96.5641 126.539 116.005 162.372C113.219 166.482 110.802 170.69 108.775 174.998C107.465 177.782 108.66 181.1 111.445 182.41C112.211 182.771 113.018 182.941 113.812 182.941C115.903 182.941 117.908 181.757 118.857 179.74C144.711 124.777 237.209 101.555 238.14 101.327C239.746 100.934 241.095 99.8468 241.821 98.3608C242.547 96.8758 242.575 95.1438 241.898 93.6348Z" fill="#E151FE"/>
<path d="M100.186 205.086C119.004 203.107 132.655 186.247 130.676 167.429C128.697 148.61 111.837 134.96 93.0185 136.939C74.2002 138.918 60.5495 155.778 62.5288 174.596C64.508 193.415 81.3678 207.065 100.186 205.086Z" fill="white"/>
<path d="M96.5821 210.85C77.3381 210.85 60.3611 196.833 57.2611 177.236C55.5991 166.727 58.1291 156.199 64.3851 147.593C70.6411 138.987 79.8751 133.332 90.3831 131.67C100.894 130.008 111.419 132.538 120.026 138.794C128.632 145.05 134.287 154.282 135.949 164.792C137.611 175.3 135.081 185.827 128.825 194.434C122.57 203.04 113.337 208.695 102.828 210.357C100.729 210.689 98.6421 210.85 96.5821 210.85ZM68.2661 175.495C70.7381 191.121 85.4681 201.827 101.087 199.352C108.657 198.155 115.306 194.081 119.813 187.883C124.318 181.684 126.141 174.101 124.944 166.532C123.747 158.962 119.674 152.312 113.475 147.806C107.275 143.3 99.6911 141.476 92.1241 142.675C84.5541 143.872 77.9041 147.945 73.3981 154.144C68.8911 160.344 67.0691 167.926 68.2661 175.495Z" fill="#E3E3E3"/>
<path d="M353.36 261.209C351.71 261.209 350.078 260.48 348.979 259.084C348.45 258.417 336.047 243.143 313.883 243.064C310.807 243.053 308.321 240.55 308.332 237.474C308.343 234.404 310.835 231.923 313.903 231.923C313.909 231.923 313.916 231.923 313.923 231.923C341.652 232.021 357.101 251.383 357.746 252.208C359.64 254.632 359.211 258.133 356.787 260.028C355.768 260.824 354.56 261.209 353.36 261.209Z" fill="#605C5D"/>
<path d="M185.86 240.511C184.193 240.511 182.544 239.768 181.449 238.349C179.574 235.921 180.005 232.441 182.425 230.556C183.251 229.913 202.95 214.89 229.866 221.542C232.853 222.28 234.676 225.299 233.938 228.286C233.2 231.273 230.183 233.094 227.193 232.358C205.665 227.039 189.913 238.853 189.254 239.36C188.241 240.135 187.045 240.511 185.86 240.511Z" fill="#605C5D"/>
<path d="M301.217 251.764C298.35 250.654 295.121 252.077 294.009 254.945C292.344 259.246 287.976 261.851 283.379 261.277C277.871 260.592 273.947 255.553 274.632 250.045V250.041L274.633 250.038L275.28 244.785L277.837 245.101C278.068 245.13 278.299 245.143 278.526 245.143C281.298 245.143 283.699 243.076 284.048 240.254C284.425 237.201 282.255 234.42 279.201 234.043L263.026 232.046C259.973 231.664 257.192 233.838 256.814 236.892C256.437 239.945 258.607 242.726 261.661 243.104L264.221 243.42L263.575 248.672C262.889 254.18 257.851 258.103 252.333 257.415C247.746 256.844 244.15 253.249 243.588 248.671C243.213 245.618 240.435 243.449 237.38 243.821C234.326 244.196 232.155 246.975 232.529 250.029C233.715 259.686 241.293 267.269 250.956 268.471C257.1 269.235 262.958 267.285 267.334 263.558C270.661 268.241 275.864 271.571 282.001 272.334C282.889 272.445 283.772 272.498 284.65 272.498C293.315 272.498 301.205 267.209 304.397 258.971C305.51 256.103 304.085 252.876 301.217 251.764Z" fill="#678490"/>
<path d="M285.458 12.2779L279.704 23.9359C278.467 26.4419 276.076 28.1799 273.31 28.5819L260.445 30.4509C253.479 31.4629 250.698 40.0229 255.738 44.9359L265.047 54.0099C267.048 55.9609 267.962 58.7719 267.489 61.5269L265.291 74.3399C264.101 81.2769 271.383 86.5679 277.613 83.2919L289.12 77.2419C291.594 75.9409 294.55 75.9409 297.024 77.2419L308.531 83.2919C314.761 86.5679 322.043 81.2769 320.853 74.3399L318.655 61.5269C318.182 58.7719 319.096 55.9609 321.097 54.0099L330.406 44.9359C335.446 40.0229 332.665 31.4629 325.699 30.4509L312.834 28.5819C310.068 28.1799 307.677 26.4429 306.44 23.9359L300.686 12.2779C297.574 5.96595 288.574 5.96595 285.458 12.2779Z" fill="#D0D2F5" fill-opacity="0.5"/>
<path d="M32.2931 316.436L26.5401 328.094C25.3031 330.601 22.9121 332.338 20.1461 332.74L7.28106 334.609C0.315055 335.621 -2.46594 344.181 2.57406 349.094L11.8831 358.168C13.8851 360.119 14.7981 362.93 14.3251 365.685L12.1271 378.498C10.9371 385.436 18.2191 390.726 24.4491 387.45L35.9561 381.4C38.4301 380.099 41.3861 380.099 43.8601 381.4L55.3671 387.45C61.5971 390.725 68.8791 385.435 67.6891 378.498L65.4911 365.685C65.0181 362.93 65.9321 360.119 67.9331 358.168L77.2421 349.094C82.2821 344.181 79.5011 335.621 72.5351 334.609L59.6701 332.74C56.9041 332.338 54.5131 330.601 53.2761 328.094L47.5221 316.436C44.4091 310.124 35.4091 310.124 32.2931 316.436Z" fill="#D0D2F5" fill-opacity="0.5"/>
<path d="M458.353 420.741L452.6 432.399C451.363 434.906 448.972 436.643 446.206 437.045L433.341 438.914C426.375 439.926 423.594 448.486 428.634 453.399L437.943 462.473C439.945 464.424 440.858 467.235 440.385 469.99L438.187 482.803C436.997 489.741 444.279 495.031 450.509 491.756L462.016 485.706C464.49 484.405 467.446 484.405 469.92 485.706L481.427 491.756C487.657 495.031 494.939 489.741 493.749 482.803L491.551 469.99C491.078 467.235 491.992 464.424 493.993 462.473L503.302 453.399C508.342 448.486 505.561 439.926 498.595 438.914L485.73 437.045C482.964 436.643 480.573 434.906 479.336 432.399L473.582 420.741C470.468 414.429 461.468 414.429 458.353 420.741Z" fill="#D0D2F5" fill-opacity="0.5"/>
<path d="M52.0421 244.474L48.2021 252.256C47.3761 253.929 45.7801 255.089 43.9341 255.357L35.3471 256.605C30.6971 257.281 28.8411 262.994 32.2051 266.274L38.4191 272.331C39.7551 273.633 40.3651 275.51 40.0491 277.349L38.5821 285.902C37.7881 290.533 42.6481 294.064 46.8071 291.878L54.4881 287.84C56.1391 286.972 58.1121 286.972 59.7641 287.84L67.4451 291.878C71.6041 294.064 76.4641 290.533 75.6701 285.902L74.2031 277.349C73.8881 275.51 74.4971 273.634 75.8331 272.331L82.0471 266.274C85.4111 262.995 83.5551 257.281 78.9051 256.605L70.3171 255.357C68.4711 255.089 66.8751 253.929 66.0491 252.256L62.2091 244.474C60.1301 240.261 54.1221 240.261 52.0421 244.474Z" fill="#D0D2F5" fill-opacity="0.5"/>
<path d="M88.437 415.939C99.39 429.719 112.212 442.494 126.786 453.844C158.175 478.273 195.146 492.753 233.215 497.308C252.459 499.62 271.984 499.386 291.206 496.654C326.799 491.563 361.364 477.83 391.165 455.502C392.052 454.825 392.939 454.148 393.827 453.447C414.73 437.332 431.872 418.274 445.185 397.395C496.122 317.498 490.984 210.602 425.543 135.539C423.418 133.087 421.223 130.705 419.004 128.369C404.431 113.048 378.32 125.566 381.846 146.399C383.224 154.526 384.112 162.701 384.509 170.898C385.607 192.455 383.388 214.105 377.923 235.031C367.624 274.454 345.786 311.285 312.786 340.058C255.707 389.804 179.079 403.14 111.629 381.957C91.66 375.675 75.428 399.567 88.437 415.939Z" fill="#9DACFF"/>
<path d="M475.201 213.463C465.942 183.308 450.647 155.86 429.742 131.882C427.564 129.383 425.31 126.908 423.042 124.524C414.567 115.617 401.937 113.44 390.863 118.981C380.056 124.388 374.364 135.516 376.36 147.33C382.09 181.247 379.168 216.354 367.908 248.855C356.302 282.358 335.973 312.442 309.117 335.856C282.307 359.229 249.765 375.236 215.009 382.146C181.284 388.852 146.112 386.944 113.293 376.633C101.852 373.036 90.0141 377.194 83.1291 387.219C76.1931 397.317 76.5701 409.953 84.0881 419.412C95.4951 433.765 108.708 446.825 123.357 458.229C161.325 487.789 209.33 504.204 258.53 504.453C258.91 504.455 259.288 504.456 259.668 504.456C308.322 504.456 356.163 488.674 394.499 459.955C420.266 440.651 441.164 416.826 456.612 389.138C471.452 362.542 480.608 333.633 483.827 303.214C487.045 272.784 484.143 242.587 475.201 213.463ZM472.746 302.042C469.687 330.957 460.985 358.434 446.883 383.71C445.417 386.337 443.885 388.918 442.316 391.472C434.97 378.888 421.333 370.443 405.715 370.443C382.313 370.443 363.349 389.407 363.349 412.809C363.349 429.74 373.311 444.371 387.697 451.128C360.039 471.816 327.175 485.412 292.714 490.754C292.947 489.221 293.074 487.652 293.074 486.05C293.074 468.931 279.201 455.058 262.082 455.058C244.963 455.058 231.09 468.931 231.09 486.05C231.09 487.893 231.258 489.699 231.568 491.455C194.502 486.552 159.246 472.05 130.201 449.437C116.249 438.575 103.668 426.141 92.8101 412.48C87.4651 405.755 89.0491 398.279 92.3131 393.527C95.5371 388.833 101.862 384.72 109.954 387.262C144.548 398.132 181.628 400.142 217.181 393.074C253.842 385.785 288.165 368.904 316.438 344.254C344.756 319.566 366.194 287.838 378.436 252.502C380.161 247.521 381.678 242.477 383.031 237.392C386.824 238.799 390.924 239.584 395.205 239.584C414.636 239.584 430.377 223.82 430.377 204.411C430.377 184.98 414.636 169.239 395.205 169.239C393.437 169.239 391.704 169.38 390.009 169.631C389.567 161.546 388.698 153.477 387.345 145.473C385.936 137.129 390.814 131.464 395.848 128.944C400.856 126.439 408.867 125.789 414.969 132.203C417.126 134.471 419.272 136.826 421.344 139.203C441.215 161.996 455.752 188.08 464.549 216.732C473.049 244.413 475.806 273.114 472.746 302.042Z" fill="#816BFF"/>
<path d="M314.442 422.069C325.911 419.361 333.013 407.868 330.305 396.399C327.597 384.931 316.104 377.829 304.635 380.537C293.166 383.245 286.064 394.738 288.772 406.206C291.481 417.675 302.973 424.777 314.442 422.069Z" fill="#816BFF"/>
<path d="M185.767 372.971C189.413 408.031 224.434 456.691 285.082 465.279C338.105 472.787 334.569 433.967 328.031 422.675C309.534 390.729 249.66 404.215 236.254 366.847C236.254 366.847 185.074 366.305 185.767 372.971Z" fill="#B1B9C6"/>
<path d="M297.541 471.791C293.55 471.791 289.15 471.481 284.3 470.794C247.371 465.566 214.975 444.97 195.415 414.289C181.973 393.204 176.756 369.795 181.8 353.196C182.695 350.252 185.803 348.591 188.751 349.486C191.695 350.381 193.355 353.493 192.461 356.437C188.336 370.009 193.068 389.882 204.81 408.3C222.618 436.234 252.16 454.991 285.863 459.764C304.204 462.358 316.897 459.292 322.563 450.889C328.406 442.225 325.868 430.056 323.211 425.467C315.628 412.369 299.28 407.847 281.974 403.059C260.88 397.224 239.069 391.19 231.012 368.73C229.973 365.834 231.478 362.644 234.374 361.605C237.274 360.562 240.46 362.072 241.499 364.967C247.607 381.992 265.743 387.008 284.945 392.321C303.648 397.495 322.988 402.845 332.854 419.885C337.468 427.855 340.192 444.677 331.802 457.119C327.033 464.186 317.308 471.791 297.541 471.791Z" fill="#678490"/>
<path d="M503.845 239.025C509.092 256.425 507.24 272.373 489.84 277.62C472.439 282.867 454.08 273.015 448.833 255.614C443.586 238.214 453.438 219.854 470.839 214.607C488.239 209.359 498.598 221.624 503.845 239.025Z" fill="#B1B9C6"/>
<path d="M480.358 284.596C463.827 284.596 448.512 273.846 443.499 257.222C440.532 247.382 441.574 236.975 446.434 227.919C451.295 218.862 459.39 212.24 469.23 209.274C479.164 206.279 488.247 207.937 495.497 214.07C501.413 219.074 506.016 226.93 509.178 237.417C512.341 247.904 512.848 256.994 510.684 264.435C508.033 273.555 501.381 279.958 491.448 282.953C487.759 284.066 484.028 284.596 480.358 284.596ZM478.564 218.958C476.65 218.958 474.616 219.286 472.446 219.94C465.455 222.048 459.703 226.752 456.25 233.187C452.797 239.621 452.057 247.015 454.165 254.006C458.517 268.437 473.797 276.635 488.231 272.287C494.551 270.381 498.395 266.795 499.986 261.325C501.516 256.062 501.006 248.907 498.511 240.634C496.016 232.361 492.485 226.116 488.3 222.577C485.444 220.16 482.227 218.958 478.564 218.958Z" fill="#678490"/>
</svg>
